<?xml version="1.0" encoding="UTF-8" standalone="no"?>
<!-- Created with Inkscape (http://www.inkscape.org/) -->

<svg
   version="1.1"
   id="svg1"
   width="709"
   height="1172"
   viewBox="0 0 709 1172"
   xmlns="http://www.w3.org/2000/svg"
   xmlns:svg="http://www.w3.org/2000/svg">
  <defs
     id="defs1" />
  <g
     id="g1">
    <path
       style="fill:#000000;stroke-width:0.994512"
       d="m 3.6060008,881.65188 c 0,-0.66478 118.0619792,-1 352.1933292,-1 234.13137,0 352.19328,0.33522 352.19328,1 0,0.66478 -118.06191,1 -352.19328,1 -234.13135,0 -352.1933292,-0.33522 -352.1933292,-1 z M 341.35293,784.85732 c -5.11432,-3.46941 -6.47536,-7.89117 -3.45875,-11.23684 1.15446,-1.28041 1.28752,-2.30996 0.5501,-4.2567 -0.53497,-1.4123 -0.70685,-5.75023 -0.38196,-9.63985 l 0.5907,-7.07205 h 2.82543 c 3.01309,0 4.57225,2.94907 3.53055,6.67783 -2.00525,7.17779 -2.13387,7.06559 2.7101,2.36396 2.90253,-2.81725 4.59317,-5.32508 4.59317,-6.81336 0,-5.84993 6.4013,-2.43064 7.0608,3.77157 0.32166,3.025 0.65959,4.375 0.75095,3 0.54764,-8.24158 11.33201,-13.01212 14.35604,-6.35049 l 1.20279,2.64951 0.56435,-2.39951 c 0.43578,-1.85306 1.22445,-2.39951 3.46297,-2.39951 h 2.89872 l -0.28435,5.37691 -0.28435,5.37691 2.92344,-3.37691 c 1.60781,-1.8573 3.45318,-4.38941 4.10081,-5.62691 0.7505,-1.43415 2.0967,-2.25 3.71251,-2.25 h 2.53495 l -0.67918,6.36596 -0.67919,6.36595 2.65868,0.66977 c 1.79641,0.45256 2.55363,1.22574 2.33485,2.38405 -0.45348,2.40006 -8.30626,2.95024 -10.72687,0.75153 -1.56389,-1.42057 -1.88069,-1.42715 -3.0091,-0.0625 -2.42338,2.93091 -7.95456,1.95922 -8.64769,-1.51918 l -0.60658,-3.04442 -1.80592,2.98059 c -3.1347,5.17371 -11.54609,7.22234 -13.7884,3.35824 -0.85393,-1.47155 -1.02122,-1.27265 -1.05137,1.25 -0.13617,11.39431 -9.80595,18.23569 -17.9582,12.70544 z m 10.95934,-12.88747 v -5.3334 l -2.98891,2.67301 c -1.64391,1.47016 -2.98892,3.47627 -2.98892,4.45803 0,0.98175 -0.78459,2.25185 -1.74352,2.82244 -1.60162,0.95297 -1.54095,1.19645 0.74521,2.99104 l 2.48874,1.95361 2.2437,-2.11566 c 1.78345,-1.68169 2.2437,-3.20968 2.2437,-7.44907 z m -47.04006,6.11042 c -1.57502,-3.46961 3.7089,-6.65139 5.69346,-3.42839 2.07303,3.36668 6.27978,0.0471 7.17359,-5.66077 l 0.6012,-3.83923 -2.77788,2.75 c -3.29548,3.26241 -11.66618,4.01265 -13.24175,1.18681 -0.79038,-1.41758 -0.99196,-1.41758 -2.1641,0 -2.76555,3.34464 -7.81515,1.99046 -9.14105,-2.45141 l -1.19836,-4.0146 -2.38517,4.0146 c -2.46259,4.14492 -8.45209,5.88803 -9.49946,2.7646 -0.33086,-0.98669 -0.75258,-0.97381 -2.002,0.0611 -0.92695,0.76782 -3.36795,1.18219 -5.89076,1 l -4.30792,-0.31111 0.0963,-6.25 c 0.053,-3.4375 -0.24526,-6.25 -0.66278,-6.25 -1.78097,0 -6.44813,6.24468 -6.90586,9.24009 l -0.49816,3.25991 -8.2366,0.29072 c -7.76329,0.27401 -8.28433,0.16121 -9.0672,-1.96295 l -0.83061,-2.25367 -1.17996,2.21295 c -4.86478,9.12364 -13.15426,-3.81346 -9.31466,-14.53705 1.51552,-4.23267 6.21235,-1.2214 6.23901,4 l 0.0268,5.25 2.94086,-3.5 c 1.61747,-1.925 3.21308,-4.31366 3.54579,-5.30814 0.42206,-1.26153 1.40733,-1.71499 3.25924,-1.5 2.84382,0.33014 3.03797,1.39763 1.5767,8.66893 -0.46786,2.328 -0.26758,3.61377 0.65168,4.18401 2.22638,1.38109 3.06104,-0.0298 2.89665,-4.89631 -0.26596,-7.87328 -0.1801,-8.14849 2.54207,-8.14849 1.38711,0 2.78626,0.69115 3.10922,1.53589 0.52805,1.38118 0.82243,1.38118 2.92259,0 1.28446,-0.84474 3.24783,-1.53589 4.36305,-1.53589 1.4549,0 2.02766,-0.65334 2.02766,-2.31291 0,-2.88887 4.85364,-7.68709 7.77587,-7.68709 3.0792,0 2.89334,3.98549 -0.32747,7.02252 -2.00625,1.89176 -2.23127,2.53031 -1.11304,3.15843 0.97565,0.54803 1.31456,2.27756 1.11519,5.69118 l -0.28641,4.9039 2.64483,-0.70646 c 2.05795,-0.54971 2.75537,-1.46792 3.14298,-4.13802 0.63806,-4.39528 4.94015,-5.05414 6.08267,-0.93155 0.38106,1.375 0.73752,1.79094 0.79214,0.92431 0.14236,-2.25877 4.34422,-5.92431 6.79112,-5.92431 2.2334,0 4.26754,4.18104 4.26754,8.77167 0,2.04871 0.2483,2.26638 1.44663,1.26816 0.79567,-0.66279 2.3128,-0.92914 3.37143,-0.5919 1.48883,0.47429 2.07399,0.0164 2.5836,-2.02154 3.69896,-14.79254 19.73768,-10.47264 19.86173,5.3496 0.11221,14.31227 -13.52541,23.63396 -18.51045,12.6524 z m 204.16962,1.95085 c -0.39038,-0.39191 -0.70994,-4.63879 -0.70994,-9.4375 0,-8.51462 -0.0613,-8.74033 -2.53653,-9.36393 -4.09547,-1.03171 -6.20245,2.25072 -3.30897,5.15497 0.62073,0.62303 0.85899,1.83803 0.52944,2.7 -0.79906,2.0901 -6.26635,2.05905 -7.43788,-0.0422 -0.82477,-1.47928 -0.94712,-1.47928 -1.51276,0 -1.02664,2.68539 -26.5817,2.38632 -26.5817,-0.31108 0,-1.31138 0.92744,-2.12501 2.92404,-2.56515 l 2.92394,-0.6446 -1.92767,-1.93486 c -4.97939,-4.99786 -1.21268,-10.93485 6.93772,-10.93485 6.24241,0 7.62026,4.16794 1.59573,4.82695 -3.40293,0.37224 -5.936,2.17305 -3.05666,2.17305 1.00388,0 3.33518,0.9367 5.18076,2.08156 l 3.35556,2.08156 0.0475,-2.83156 c 0.10504,-6.21433 2.98279,-9.80154 8.13012,-10.13449 6.22797,-0.40286 9.97816,1.91327 9.16842,5.66242 -0.41342,1.91392 -0.29918,2.25243 0.41501,1.23016 0.5419,-0.77569 2.03528,-1.4854 3.31857,-1.57714 1.88998,-0.13511 2.5483,-1.02654 3.46545,-4.69326 1.99007,-7.9558 2.80594,-8.81925 8.33267,-8.81925 3.90845,0 5.13141,0.41263 5.98882,2.02067 1.53748,2.88348 0.24321,4.28242 -3.41144,3.68716 -2.87449,-0.4682 -3.23895,-0.21796 -4.20803,2.88979 l -1.06096,3.40238 h 3.33836 c 2.01005,0 4.13127,-0.79583 5.33099,-2 2.2135,-2.22172 6.92288,-2.65143 8.76747,-0.8 2.97863,2.98964 0.12679,9.29241 -5.03132,11.1196 -0.95889,0.3397 -1.7435,1.6015 -1.7435,2.804 0,2.05478 0.10968,2.08677 1.82193,0.53139 2.88893,-2.62408 7.14483,-2.18925 7.14483,0.73 0,3.25582 -3.91725,5.61501 -9.32332,5.61501 -5.01677,0 -5.62128,-0.80596 -5.62128,-7.4953 0,-4.24004 -0.0584,-4.31591 -2.73978,-3.58436 l -2.73987,0.74737 v 8.91614 8.91615 l -2.52802,0.29591 c -1.39041,0.16275 -2.84759,-0.0247 -3.23797,-0.41667 z m -64.52218,-9.47083 c -0.61341,-1.15038 -0.96542,-4.7248 -0.78224,-7.94316 l 0.33291,-5.85157 -2.48816,2.19316 c -3.37139,2.97158 -4.39703,4.65765 -4.98414,8.19316 -0.44279,2.66667 -0.88559,3 -3.98519,3 h -3.487 l -0.60095,-8 c -0.33045,-4.4 -0.4161,-8.3375 -0.1903,-8.75 0.75425,-1.37765 5.32922,-0.77076 5.92433,0.78589 0.52806,1.38118 0.8224,1.38118 2.92256,0 3.20077,-2.105 8.38331,-2.04382 8.38331,0.099 0,1.19148 0.56,0.92028 2.06495,-1 3.62468,-4.62515 9.89073,-3.11049 9.89073,2.39083 0,2.64574 -3.59541,6.97431 -5.79299,6.97431 -0.64961,0 -1.18112,0.4132 -1.18112,0.91821 0,0.50502 -0.30315,1.71103 -0.67365,2.68003 -0.63586,1.66327 -0.53982,1.66784 1.71621,0.0818 3.62804,-2.5506 6.92782,-2.21481 6.92782,0.70496 0,5.1293 -11.58577,8.04572 -13.99708,3.52342 z m -229.57986,0.27761 c -0.19098,-0.1917 -3.12324,-0.33522 -6.51613,-0.31893 -5.9262,0.0285 -6.21249,-0.0864 -7.27763,-2.91874 -1.3923,-3.7023 -2.00384,-3.68836 -4.69639,0.10699 -3.80643,5.36548 -8.34152,3.96286 -8.72679,-2.69902 -0.26266,-4.54183 -0.52496,-5.08397 -2.24168,-4.63337 -1.9988,0.52464 -2.72831,2.27705 -0.94791,2.27705 2.00041,0 0.92583,3.91048 -1.62882,5.92742 -8.44176,6.66493 -16.89629,2.01979 -17.83094,-9.79679 -0.78893,-9.97427 -0.60096,-10.13063 12.17877,-10.13063 h 10.40849 l -0.31837,2.25 c -0.29248,2.06702 -0.91132,2.27401 -7.60959,2.54519 -5.14418,0.20826 -7.17296,0.64997 -6.88963,1.5 0.43361,1.30084 12.8957,1.40908 17.91699,0.15561 2.57202,-0.64206 2.74465,-0.47775 2.81848,2.68262 0.0432,1.85162 0.32337,2.69158 0.62245,1.86658 3.10893,-8.57563 11.25454,-8.66592 11.25454,-0.12476 0,3.16171 1.4008,4.89491 2.50577,3.1004 0.35796,-0.58135 1.62187,-0.76311 2.80867,-0.40392 1.75874,0.53228 1.9275,0.41033 0.91246,-0.65932 -1.80235,-1.89934 -1.52858,-5.34518 0.5766,-7.25741 2.79022,-2.53448 13.12257,-2.34707 13.12257,0.23802 0,2.07542 -1.84639,3.10699 -5.56115,3.10699 -3.81719,0 -2.82684,1.44222 2.63367,3.83537 7.88541,3.4559 7.14307,8.42172 -1.37261,9.18191 -3.18701,0.2845 -5.95082,0.36044 -6.14182,0.16874 z m 193.77682,-5.43602 c 0.0139,-4.87119 1.39229,-10.52754 3.28979,-13.5 1.00428,-1.57312 8.72187,-1.63023 12.09098,-0.0895 2.79783,1.27951 2.96469,2.26803 1.47636,8.74867 -0.6957,3.02926 -0.68809,4.73494 0.0247,5.45 0.57028,0.57245 1.03692,1.85081 1.03692,2.84081 0,2.14254 -6.50303,2.63488 -7.2647,0.55 -0.36535,-1 -0.72062,-1 -1.77673,0 -0.72607,0.6875 -3.02384,1.25 -5.10609,1.25 h -3.7859 z m 129.50447,3.35699 c 0,-1.04116 0.78452,-2.19642 1.7435,-2.56725 1.66053,-0.64213 1.66053,-0.72102 0,-1.65668 -1.41899,-0.79955 -1.7435,-2.38116 -1.7435,-8.49611 v -7.51367 l 3.23796,0.31336 3.23797,0.31336 -0.30938,7.5 c -0.17457,4.23242 -0.78194,7.66691 -1.39407,7.88309 -0.5966,0.21071 -0.0564,1.16146 1.19982,2.11279 2.94619,2.23053 1.81927,4.00412 -2.54404,4.00412 -2.69952,0 -3.42826,-0.40242 -3.42826,-1.89301 z M 340.35662,718.05022 c -46.21087,-5.30005 -85.53459,-31.65732 -112.97757,-75.72478 -5.65936,-9.0877 -14.54929,-26.29579 -14.54929,-28.16281 0,-0.2929 -0.94884,-2.66514 -2.10854,-5.27165 -4.18303,-9.4017 -4.7614,-10.94314 -9.28251,-24.7391 -16.57212,-50.5691 -25.36316,-109.16502 -32.4061,-216 -1.68797,-25.60495 -4.92001,-112.05661 -5.13587,-137.3755 -0.12188,-14.29565 -2.97676,-13.08616 30.99956,-13.13314 15.61705,-0.0216 33.55052,-0.26199 39.85214,-0.53422 13.78211,-0.59536 102.37097,-2.29859 154.92516,-2.97862 20.82284,-0.26943 57.91936,-1.01006 82.43691,-1.64583 40.30353,-1.04512 44.74507,-1.00411 46.32805,0.42777 0.96294,0.87105 2.95776,1.88601 4.43284,2.25547 4.20693,1.05369 9.82901,6.53842 10.74655,10.48407 0.68848,2.96069 0.82962,2.41231 0.91587,-3.55887 0.13332,-9.23008 1.19497,-10.6612 7.6073,-10.25478 l 4.94853,0.31365 -0.28247,54 c -0.83615,159.87356 -10.38368,252.82268 -32.99215,321.19285 -29.82926,90.20608 -95.44929,139.65256 -173.45841,130.70549 z m 36.6207,-4.87176 c 65.75652,-9.98072 114.41795,-59.51372 136.58046,-139.02658 0.61321,-2.2 1.81254,-6.475 2.6652,-9.5 1.62709,-5.77215 7.16658,-29.64964 8.46798,-36.5 0.41787,-2.2 1.23265,-6.29334 1.81046,-9.09631 1.10358,-5.35301 7.15629,-50.792 9.04519,-67.90369 5.17829,-46.91117 10.41513,-234.6541 6.5865,-236.12874 -2.77785,-1.06994 -3.25725,1.02313 -4.0112,17.51334 -2.28126,49.8988 -2.98942,54.6719 -7.834,52.80593 -1.23721,-0.4765 -1.62986,-1.96059 -1.62986,-6.15914 v -5.53139 h -9.80468 c -5.39252,0 -16.54657,0.29289 -24.78657,0.65088 l -14.98208,0.65087 -0.57494,4.87295 c -0.71687,6.07495 -1.17954,6.8253 -4.20911,6.8253 h -2.43199 v -8.92957 c 0,-9.27422 2.68924,-56.24929 3.39592,-59.32043 0.4965,-2.1573 -20.19707,-2.36368 -78.61679,-0.78404 -69.35846,1.87542 -130.51323,3.10804 -163.89197,3.30337 -18.3569,0.10743 -28.23714,0.3314 -21.9561,0.49773 13.35737,0.35372 12.72079,-0.21366 12.90711,11.50387 0.0789,4.96067 0.31229,9.29364 0.51869,9.62884 0.35913,0.58325 2.43135,31.28261 3.0579,45.30209 0.16474,3.68602 0.54903,8.41102 0.85399,10.5 0.30496,2.08898 0.81961,8.29814 1.14367,13.79814 0.32406,5.5 1.44145,17.65 2.48309,27 1.04164,9.35 2.16799,20.6 2.50298,25 0.335,4.4 1.00478,10.25 1.48841,13 0.48362,2.75 1.35486,8.15 1.93608,12 2.89155,19.1536 5.25088,33.34727 6.06718,36.5 0.49841,1.925 1.82837,7.55 2.95547,12.5 6.90577,30.32888 12.71571,46.30089 24.37176,67 10.38376,18.43974 32.80524,34.99582 50.41779,37.22862 31.10043,3.9427 61.85523,-22.04014 78.3921,-66.22862 1.64668,-4.4 3.48137,-9.575 4.07708,-11.5 3.36505,-10.87254 5.06029,-17.14502 6.08109,-22.5 0.62904,-3.3 1.52888,-6.9 1.99967,-8 0.47069,-1.1 1.41118,-4.925 2.08987,-8.5 0.67869,-3.575 1.61137,-6.9914 2.07256,-7.59201 0.4611,-0.6006 0.64862,-1.28257 0.41659,-1.51547 -0.23203,-0.23291 0.01,-3.5665 0.53656,-7.40799 0.52717,-3.84149 1.18093,-9.00953 1.45282,-11.48453 0.2719,-2.475 0.73566,-5.5938 1.0307,-6.93066 0.51955,-2.35475 1.48941,-9.96418 3.38642,-26.56934 0.50263,-4.4 1.14156,-9.8 1.41988,-12 0.27822,-2.2 0.98114,-9.625 1.56201,-16.5 0.58087,-6.875 1.48566,-17.45 2.01055,-23.5 0.52489,-6.05 1.41484,-20 1.97761,-31 0.56277,-11 1.26085,-23.375 1.55133,-27.5 0.29039,-4.125 0.78937,-13.575 1.10873,-21 0.68769,-15.98864 -0.38355,-14.92174 14.74629,-14.68653 l 11.9992,0.18653 v 72 c 0,39.6 -0.3617,78.75 -0.8038,87 -1.30823,24.41558 -2.70991,44.52579 -3.62429,52 -0.47099,3.85 -1.35065,11.5 -1.95477,17 -0.60401,5.5 -1.51612,11.8 -2.02677,14 -0.51074,2.2 -1.23443,6.925 -1.60829,10.5 -0.37387,3.575 -1.34235,8.975 -2.15218,12 -0.80984,3.025 -1.81591,7.075 -2.23576,9 -16.77761,76.93096 -60.54193,119.6421 -119.44416,116.56979 -31.07181,-1.62068 -62.73976,-20.02705 -79.26257,-46.06979 -2.09369,-3.3 -4.65314,-7.21928 -5.68769,-8.70951 -1.03454,-1.49023 -1.88099,-3.22076 -1.88099,-3.84563 0,-0.62486 -0.83067,-2.33059 -1.84593,-3.79049 -7.35114,-10.57055 -19.82131,-49.15598 -24.12704,-74.65437 -0.65013,-3.85 -1.56908,-9.025 -2.04212,-11.5 -0.47303,-2.475 -1.33829,-8.55 -1.92279,-13.5 -0.58449,-4.95 -1.48428,-12.15 -1.99954,-16 -1.92641,-14.39424 -4.68763,-41.93837 -5.41332,-54 -1.54337,-25.6515 -2.52593,-54.39943 -2.99063,-87.5 -0.28955,-20.625 -0.75928,-43.87064 -1.04385,-51.65698 -0.39989,-10.94142 -0.22797,-14.28048 0.75691,-14.70068 1.61919,-0.69084 -25.84615,-0.62671 -28.88321,0.0674 -2.05421,0.46951 -2.21181,0.94089 -1.72299,5.1535 0.29593,2.5502 0.98119,19.71172 1.52282,38.13672 2.1706,73.83871 4.39822,117.58654 7.86712,154.5 0.56854,6.05 1.25151,13.475 1.51771,16.5 4.13838,47.0271 13.85869,102.86794 23.40636,134.46384 1.00321,3.31989 2.52074,8.3677 3.37231,11.21736 4.47514,14.97551 16.06341,41.52489 23.05435,52.8188 1.3618,2.2 3.33584,5.575 4.38675,7.5 18.34496,33.60331 58.79549,62.00772 98.76333,69.35174 4.65772,0.85585 9.36525,1.74963 10.46119,1.98617 4.78491,1.03278 26.24182,0.53718 35.12624,-0.81133 z m 89.94085,-199.70694 c -9.59995,-6.54809 -12.8476,-28.76598 -5.64393,-38.61202 0.6148,-0.84039 0.5421,-1.69725 -0.2078,-2.45 -2.10075,-2.10846 -1.4091,-6.6676 1.08826,-7.17463 12.00354,-2.43697 17.68447,-1.18791 17.68447,3.8883 0,0.18761 -2.23061,1.94952 -4.95674,3.91537 -7.58228,5.46754 -9.98895,10.01018 -9.98291,18.84347 0.0119,16.68553 10.19209,17.25354 13.79877,0.76987 6.07704,-27.7738 13.00408,-35.89055 28.62341,-33.53959 14.31902,2.15523 22.09317,24.80209 14.01518,40.82731 -2.65165,5.26033 -2.7287,5.74986 -1.24008,7.88296 4.02446,5.76703 0.87344,8.02625 -10.62718,7.61961 l -8.20993,-0.29029 -0.3068,-2.6621 c -0.24984,-2.16768 0.49027,-3.21585 3.98519,-5.64376 11.02448,-7.65872 15.09048,-19.53688 10.39851,-30.37726 -5.95311,-13.75391 -14.80395,-6.70245 -19.58593,15.60406 -4.24106,19.78314 -17.15246,29.36561 -28.83249,21.3987 z m 15.17752,-4.35368 c 4.82955,-3.29397 6.92179,-7.59863 10.07064,-20.7198 4.50544,-18.7741 11.159,-26.12001 19.68187,-21.72991 2.11548,1.08968 2.20667,1.05701 0.86898,-0.3115 -10.42245,-10.66249 -24.33833,0.57601 -28.84495,23.29525 -3.20443,16.15461 -9.89756,23.48899 -16.45241,18.02875 -0.84089,-0.7005 -1.52898,-0.98692 -1.52898,-0.6365 0,4.11646 11.1228,5.53982 16.20485,2.07371 z m 34.60668,2.14885 c 0,-3.07334 -2.81108,-6.53385 -4.06738,-5.00703 -0.7768,0.94398 -2.75728,2.54173 -4.40119,3.55054 l -2.98892,1.8342 5.7287,0.004 c 3.15083,0.002 5.72879,-0.1696 5.72879,-0.38145 z m 2.6568,-58.28148 c -0.36536,-0.36666 -0.66425,-3.0337 -0.66425,-5.92675 0,-4.73482 -0.27357,-5.39883 -2.73978,-6.64937 -1.50692,-0.76411 -3.63655,-1.87812 -4.73242,-2.47559 -1.09597,-0.59747 -8.71771,-4.30824 -16.93724,-8.24616 -38.04958,-18.22936 -37.58423,-17.70553 -22.4168,-25.23251 9.71785,-4.8226 37.677,-18.23904 46.0347,-22.09019 4.57457,-2.10792 4.69523,-2.27944 4.98157,-7.0835 0.31016,-5.20492 2.15247,-7.47028 5.13951,-6.31979 3.0361,1.16939 0.99459,40.2305 -2.16632,41.44795 -2.53405,0.97603 -4.65538,-1.31956 -5.17057,-5.59532 l -0.49819,-4.13474 -5.12399,2.39075 c -5.68221,2.65122 -5.18205,1.32322 -6.89103,18.29417 l -0.62568,6.21227 5.86272,2.85048 5.86271,2.85048 0.1811,-4.17498 c 0.34735,-8.01074 3.16131,-11.64229 6.18642,-7.98378 1.46163,1.76772 0.39741,29.27039 -1.2106,31.28325 -1.07124,1.34102 -3.98331,1.67594 -5.07186,0.58333 z m -18.1967,-32.58333 c 0.2702,-1.7875 0.74406,-5.1618 1.05294,-7.49845 l 0.56178,-4.24845 -8.33346,4.14827 -8.33337,4.14827 6.0802,3.20461 c 7.82114,4.1222 8.38362,4.13761 8.97191,0.24575 z m -20.29083,-2.20619 c -2.08611,-2.52291 16.36676,-13.54381 22.67702,-13.54381 1.03702,0 2.65125,-0.84922 3.58709,-1.88716 2.38155,-2.64133 13.32859,-7.4047 15.62932,-6.8008 1.73114,0.45438 1.90769,-0.0856 1.90769,-5.83558 v -6.33631 l -9.2158,4.5456 c -9.8309,4.84898 -25.92299,12.55087 -39.35394,18.83536 -9.61597,4.49939 -9.66572,4.6033 -3.48711,7.29199 2.60289,1.13266 5.6291,2.74877 6.72507,3.59134 2.53069,1.94561 3.06439,1.99421 1.53066,0.13937 z m -14.01578,-54.60246 c -0.60371,-1.13226 -0.85889,-3.26976 -0.56702,-4.75 0.29177,-1.48024 0.76038,-6.96635 1.04137,-12.19135 3.16517,-58.86882 1.42147,-52.47954 14.61544,-53.55406 13.69711,-1.1155 15.84662,2.70727 4.63491,8.24271 -8.7642,4.32705 -11.41358,11.24898 -11.69724,30.56135 -0.0228,1.56217 1.15056,1.75 10.93359,1.75 h 10.9594 v -4.27749 c 0,-5.2795 -1.95031,-8.22337 -6.43152,-9.70776 -3.57552,-1.18444 -5.02716,-3.54523 -3.93544,-6.40061 0.56069,-1.46672 2.33387,-1.63428 14.718,-1.39088 l 14.08056,0.27674 v 2.99018 c 0,2.36091 -0.5242,3.11798 -2.49073,3.59748 -7.22721,1.76214 -8.65689,3.38517 -9.17179,10.41234 l -0.29315,4 8.96675,0.29407 c 12.65207,0.41494 13.44707,0.11597 13.46369,-5.06312 0.0218,-6.65706 0.88174,-8.73095 3.62182,-8.73095 3.28078,0 4.08291,2.72221 3.18603,10.81301 -0.40769,3.67784 -0.79015,10.73699 -0.84989,15.68699 -0.16567,13.73616 -0.94237,16.93381 -4.20506,17.31306 -3.06883,0.35671 -4.05037,-1.80256 -3.55149,-7.81306 l 0.29058,-3.5 -4.48338,0.0594 c -2.46591,0.0326 -13.78641,0.14514 -25.15667,0.25 l -20.67329,0.19065 v 4.92857 c 0,7.06968 -4.41939,10.86282 -7.00547,6.01278 z m 33.90564,-15.46324 c 28.52321,-0.70913 26.45678,-0.15711 27.40301,-7.3203 0.68156,-5.15935 0.63616,-5.30482 -1.32671,-4.25043 -1.27479,0.68482 -9.12026,1.07423 -21.04785,1.04474 -10.45855,-0.0259 -21.6936,0.25709 -24.96677,0.62879 -4.17064,0.4736 -6.40066,0.30156 -7.45292,-0.57499 -1.30406,-1.08632 -1.50158,-0.58795 -1.50158,3.78985 0,2.77236 -0.28089,5.77532 -0.62419,6.67324 -0.49561,1.2965 -0.13669,1.53049 1.7436,1.13665 1.30219,-0.27276 13.80027,-0.78016 27.77341,-1.12755 z m 1.29893,-28.81888 c 0.90785,-1.39081 3.2793,-2.79693 5.84332,-3.46476 l 4.31524,-1.12398 -5.47965,0.45606 c -3.01384,0.25084 -7.72134,0.52126 -10.46122,0.60094 -2.73977,0.0797 -3.96986,0.34027 -2.73344,0.57908 1.23641,0.23882 3.02976,1.5134 3.98519,2.8324 2.17651,3.00469 2.63949,3.01698 4.53056,0.12026 z m -25.45656,-16.53643 c 1.07036,-1.44254 3.91745,-3.39737 6.32688,-4.34407 l 4.38062,-1.72126 -5.91949,0.47215 c -6.04094,0.48182 -7.47991,1.43214 -7.5263,4.97038 -0.0148,1.1 -0.23767,3.8 -0.49611,6 -0.45931,3.9102 -0.45012,3.92418 0.40927,0.6228 0.48345,-1.85745 1.75478,-4.55745 2.82513,-6 z M 173.77111,250.90661 c -0.7868,-0.95155 -0.76777,-2.016 0.0689,-3.85928 0.6355,-1.39993 0.919,-2.92932 0.63001,-3.39865 -3.68474,-5.98415 0.20905,-22.38455 4.09474,-17.2468 0.8083,1.06875 1.33587,1.26339 1.35521,0.5 0.061,-2.40681 3.95397,-1.34988 4.60409,1.25 0.73057,2.92164 2.40172,3.35475 2.40172,0.62245 0,-2.44188 2.73267,-4.77965 4.04607,-3.46137 0.91079,0.91416 1.25908,12.18945 0.689,22.305 l -0.2517,4.46607 -8.27583,0.0683 c -5.69101,0.0469 -8.61517,-0.34214 -9.36229,-1.24569 z m 182.62719,351.7122 c 23.0563,-7.56241 45.08737,-23.45494 56.60203,-40.83103 1.96544,-2.96589 4.79661,-7.24729 6.29146,-9.51422 3.01187,-4.56737 12.9301,-26.11663 15.10997,-32.82928 1.35659,-4.17756 4.73638,-15.75691 6.06893,-20.7924 6.13727,-23.19309 5.63118,-20.72808 8.5202,-41.5 7.06194,-50.77361 7.99778,-67.73181 8.41625,-152.5 0.19148,-38.775 0.0485,-73.65 -0.3165,-77.5 l -0.66464,-7 -7.97048,-0.25547 c -12.73288,-0.40811 -12.82308,-0.30671 -13.59128,15.28138 -0.59254,12.02146 -1.12079,20.82198 -3.84069,63.97409 -1.0478,16.62332 -2.24189,31.56053 -3.95701,49.5 -0.55209,5.775 -1.2468,13.2 -1.54371,16.5 -0.29701,3.3 -0.96838,8.7 -1.49209,12 -0.5237,3.3 -1.84705,12.75 -2.94085,21 -2.3492,17.71972 -4.32701,27.63501 -10.57219,53 -9.64327,39.16656 -24.47383,65.15519 -46.81598,82.03861 -10.69015,8.0783 -30.60868,13.68677 -42.1587,11.87066 -1.43381,-0.22545 -4.04127,-0.65088 -5.79436,-0.94539 -41.1556,-6.91392 -68.69379,-61.7099 -81.39636,-161.96388 -4.06122,-32.05282 -6.01009,-50.57734 -7.57475,-72 -1.85567,-25.40706 -3.03991,-41.17131 -4.05659,-54 -0.56664,-7.15 -1.29129,-17.40257 -1.61033,-22.78349 l -0.58006,-9.78349 -10.0773,0.28349 -10.0773,0.28349 v 33.5 c 0,58.18517 1.18825,90.42097 5.04999,137 1.55725,18.78307 2.04027,23.12901 4.94574,44.5 10.98518,80.80061 31.631,126.28424 68.42808,150.75 4.75647,3.1625 8.9515,5.75 9.32227,5.75 0.37078,0 4.14509,1.57299 8.38734,3.49553 6.66016,3.0183 14.37425,5.02202 26.41192,6.86044 7.68928,1.17432 24.86557,-0.56451 33.47699,-3.38904 z M 510.13921,270.15188 c 23.9344,0 22.50403,0.47747 22.50403,-7.51198 v -4.84841 l -3.11374,0.89633 c -1.71254,0.49297 -14.0675,0.90089 -27.45533,0.90647 -27.9273,0.0116 -26.22029,-0.40434 -26.22029,6.38932 v 5.2137 l 6.4054,-0.52272 c 3.52301,-0.28749 16.06895,-0.52271 27.87993,-0.52271 z m -10.38466,-14.99339 c 4.31761,-2.67835 -0.33895,-14.90595 -5.96716,-15.66895 -2.83838,-0.38479 -4.02713,-4.73975 -1.79394,-6.57185 0.71271,-0.58466 7.12415,-1.22114 14.24771,-1.41441 l 12.95195,-0.3514 0.32104,2.81047 c 0.39602,3.46606 -1.31475,5.68953 -4.37755,5.68953 -3.50451,0 -7.40098,5.7093 -7.40098,10.84439 v 4.15561 h 10.83478 10.83478 l 0.62271,-3.125 c 0.79065,-3.96795 0.6326,-20.64987 -0.22382,-23.62785 -1.10755,-3.85091 -5.81138,-7.92982 -10.51611,-9.11888 -2.45296,-0.61994 -4.73717,-1.57742 -5.07602,-2.12772 -1.6354,-2.65603 -19.42828,-0.75326 -19.42828,2.07766 0,1.20741 -1.53491,2.5097 -4.52027,3.83517 -6.91902,3.07197 -14.30547,28.6883 -9.67155,33.54111 0.82556,0.86454 17.57676,0.036 19.16271,-0.94788 z m 10.20584,-18.00859 c 3.14361,-1.3712 2.96538,-1.41974 -5.21369,-1.41974 -8.06148,0 -8.31666,0.0663 -5.30904,1.37948 1.73776,0.75871 3.71003,2.41193 4.38289,3.67381 l 1.22336,2.29433 0.8308,-2.25407 c 0.45685,-1.23974 2.2954,-2.89295 4.08568,-3.67381 z m -29.32612,-13.12956 c 0.62765,-1.17234 3.05934,-3.10888 5.40359,-4.30342 l 4.26243,-2.17189 -4.98147,0.67028 c -6.32965,0.85167 -6.30492,0.82324 -6.91942,7.95003 -0.34478,3.99838 -0.24884,4.99023 0.28871,2.98654 0.4428,-1.65 1.3185,-3.95919 1.94616,-5.13154 z M 3.6060008,161.65188 c 0,-0.66478 118.0619792,-1 352.1933292,-1 234.13137,0 352.19328,0.33522 352.19328,1 0,0.66478 -118.06191,1 -352.19328,1 -234.13135,0 -352.1933292,-0.33522 -352.1933292,-1 z"
       id="path1" />
  </g>
</svg>
